<svg xmlns="http://www.w3.org/2000/svg" width="53.072" height="53.066" viewBox="0 0 53.072 53.066">
  <g id="Group_36741" data-name="Group 36741" transform="translate(-71.742 -29.02)">
    <g id="noun_problem_3154538" transform="translate(68.786 -15.08)">
      <g id="Group_36622" data-name="Group 36622" transform="translate(2.955 44.1)">
        <path id="Path_19825" data-name="Path 19825" d="M58.119,76.8a6.179,6.179,0,0,1-6-4.748H44V47.39a3.292,3.292,0,0,1,3.29-3.29H71.948V54.889H70.53a3.33,3.33,0,1,0,0,6.66h1.418V72.054H64.12A6.179,6.179,0,0,1,58.119,76.8ZM46.836,69.212h7.953V70.63a3.33,3.33,0,0,0,6.66,0V69.212h7.669v-5a6.167,6.167,0,0,1,0-12V46.936H47.29a.455.455,0,0,0-.454.454Z" transform="translate(-44 -44.1)" fill="#fff"/>
        <path id="Path_19826" data-name="Path 19826" d="M71.954,514.754H47.29a3.292,3.292,0,0,1-3.29-3.29V486.8H54.789v1.418a3.33,3.33,0,0,0,6.66,0V486.8H71.954v7.834a6.167,6.167,0,0,1,0,12ZM46.836,489.636v21.822a.455.455,0,0,0,.454.454H69.112v-7.941H70.53a3.33,3.33,0,1,0,0-6.66H69.112v-7.675h-5a6.167,6.167,0,0,1-12,0Z" transform="translate(-44 -461.688)" fill="#fff"/>
        <path id="Path_19827" data-name="Path 19827" d="M511.458,435.8H486.8V425.019h1.418a3.33,3.33,0,0,0,0-6.66H486.8V407.848h7.834a6.167,6.167,0,0,1,12,0h8.117v24.658A3.3,3.3,0,0,1,511.458,435.8Zm-21.822-2.836h21.822a.455.455,0,0,0,.454-.454V410.684h-7.947v-1.418a3.33,3.33,0,1,0-6.659,0v1.418h-7.669v5a6.167,6.167,0,0,1,0,12Z" transform="translate(-461.682 -382.736)" fill="#fff"/>
        <path id="Path_19828" data-name="Path 19828" d="M646.744,57.964h-2.836a5.381,5.381,0,0,1,2.927-4.8,3.3,3.3,0,1,0-4.8-2.933H639.2a6.135,6.135,0,1,1,8.94,5.463A2.529,2.529,0,0,0,646.744,57.964Z" transform="translate(-605.437 -44.1)" fill="#fff"/>
        <rect id="Rectangle_4460" data-name="Rectangle 4460" width="2.836" height="2.053" transform="translate(38.471 15.565)" fill="#fff"/>
      </g>
    </g>
  </g>
</svg>
