<svg xmlns="http://www.w3.org/2000/svg" width="59.537" height="59.571" viewBox="0 0 59.537 59.571">
  <g id="Group_36739" data-name="Group 36739" transform="translate(-86.231 -27.24)">
    <g id="noun_review_644925" transform="translate(81.231 22.291)">
      <path id="Path_19820" data-name="Path 19820" d="M62.883,33.1a1.654,1.654,0,0,0-1.654,1.654,26.468,26.468,0,1,1-9.965-20.686l-5.032,1.348a1.654,1.654,0,0,0,.427,3.252,1.681,1.681,0,0,0,.429-.056l7.987-2.14a1.685,1.685,0,0,0,1.226-1.6V6.6a1.654,1.654,0,0,0-3.308,0v4.618a29.764,29.764,0,1,0,11.542,23.53A1.654,1.654,0,0,0,62.883,33.1Z" fill="#fff"/>
      <path id="Path_19821" data-name="Path 19821" d="M39.846,29.706c-13.811,0-19.467,12.226-19.7,12.747a1.654,1.654,0,0,0,0,1.356c.234.521,5.889,12.747,19.7,12.747s19.467-12.226,19.7-12.747a1.654,1.654,0,0,0,0-1.356C59.312,41.932,53.657,29.706,39.846,29.706Zm0,23.542c-10.054,0-15.04-7.731-16.339-10.117,1.3-2.39,6.287-10.118,16.339-10.118s15.037,7.727,16.339,10.117C54.883,45.521,49.9,53.248,39.846,53.248Z" transform="translate(-5.077 -8.38)" fill="#fff"/>
      <path id="Path_19822" data-name="Path 19822" d="M46.615,40a6.615,6.615,0,1,0,6.615,6.615A6.623,6.623,0,0,0,46.615,40Zm0,9.923a3.308,3.308,0,1,1,3.308-3.308A3.311,3.311,0,0,1,46.615,49.923Z" transform="translate(-11.847 -11.864)" fill="#fff"/>
    </g>
  </g>
</svg>
