<svg xmlns="http://www.w3.org/2000/svg" width="58.031" height="44.582" viewBox="0 0 58.031 44.582">
  <g id="Group_36742" data-name="Group 36742" transform="translate(-30.853 -34.759)">
    <g id="noun_interview_2315139" transform="translate(28.01 2.859)">
      <g id="Group_36625" data-name="Group 36625" transform="translate(2.844 31.9)">
        <path id="Path_19836" data-name="Path 19836" d="M20.378,111.62l-3.087-.487-.789-8.471a6.837,6.837,0,1,0-13.646.859l.835,8.888a6.806,6.806,0,0,0,4.386,5.964,4.265,4.265,0,0,0,2.135.441l6.475.3a1.173,1.173,0,0,0,.116-2.344l-6.545-.3h-.116a1.9,1.9,0,0,1-1.068-.232l-.139-.07a4.481,4.481,0,0,1-2.924-3.992L5.2,103.335a4.5,4.5,0,1,1,8.981-.511l.835,8.888v.395a1.176,1.176,0,0,0,1,1.184l4.015.627a.976.976,0,0,1,.835.975v9.84a1.164,1.164,0,0,0,1.16,1.16,1.179,1.179,0,0,0,1.16-1.16v-9.817A3.281,3.281,0,0,0,20.378,111.62Z" transform="translate(-2.844 -81.311)" fill="#fff"/>
        <path id="Path_19837" data-name="Path 19837" d="M13.827,44.154A6.127,6.127,0,1,0,7.7,38.027,6.136,6.136,0,0,0,13.827,44.154Zm0-9.91a3.783,3.783,0,1,1-3.783,3.783A3.783,3.783,0,0,1,13.827,34.244Z" transform="translate(-6.573 -31.9)" fill="#fff"/>
        <path id="Path_19838" data-name="Path 19838" d="M179.271,96.257a6.841,6.841,0,0,0-7.241,6.359l-.812,8.517-3.087.487a3.342,3.342,0,0,0-2.831,3.3v9.817a1.164,1.164,0,0,0,1.16,1.16,1.179,1.179,0,0,0,1.16-1.16v-9.817a.976.976,0,0,1,.835-.975l4.015-.627a1.2,1.2,0,0,0,1-1.184v-.348l.835-8.958a4.5,4.5,0,0,1,8.981.487l-.835,8.958a4.507,4.507,0,0,1-2.924,3.945l-.139.07a2.064,2.064,0,0,1-1.068.232H178.2l-6.545.3a1.173,1.173,0,0,0,.116,2.344l6.475-.3a4.472,4.472,0,0,0,2.135-.441,6.828,6.828,0,0,0,4.386-5.941l.835-8.958A6.739,6.739,0,0,0,179.271,96.257Z" transform="translate(-127.598 -81.311)" fill="#fff"/>
        <path id="Path_19839" data-name="Path 19839" d="M201.627,44.154a6.127,6.127,0,1,0-6.127-6.127A6.136,6.136,0,0,0,201.627,44.154Zm0-9.91a3.783,3.783,0,1,1-3.783,3.783A3.783,3.783,0,0,1,201.627,34.244Z" transform="translate(-150.789 -31.9)" fill="#fff"/>
        <path id="Path_19840" data-name="Path 19840" d="M81.16,129.021h19.958a1.16,1.16,0,0,0,0-2.321H81.16A1.164,1.164,0,0,0,80,127.86,1.149,1.149,0,0,0,81.16,129.021Z" transform="translate(-62.094 -103.075)" fill="#fff"/>
      </g>
    </g>
  </g>
</svg>
