<svg xmlns="http://www.w3.org/2000/svg" width="61.71" height="57.687" viewBox="0 0 61.71 57.687">
  <g id="Group_36740" data-name="Group 36740" transform="translate(-74.145 -28.592)">
    <g id="noun_call_1163045" transform="translate(72.145 25.027)">
      <g id="Group_36621" data-name="Group 36621" transform="translate(2 3.565)">
        <g id="Group_36617" data-name="Group 36617" transform="translate(0 10.025)">
          <path id="Path_19823" data-name="Path 19823" d="M40.614,59.024C26.54,59.024,2,34.484,2,20.41,2,15.4,7.4,12.581,9.723,11.6a3.021,3.021,0,0,1,3.325.659l5.779,5.779a3.016,3.016,0,0,1,.12,4.173,3.489,3.489,0,0,0-1.1,1.962c-.2,3.153,2.446,7.966,6.743,12.262s9.119,6.957,12.262,6.743h0a3.485,3.485,0,0,0,1.962-1.1,3.015,3.015,0,0,1,4.173.118l5.78,5.779a3.023,3.023,0,0,1,.659,3.326C48.442,53.623,45.622,59.024,40.614,59.024ZM10.893,13.935a.424.424,0,0,0-.17.035c-1.849.78-6.151,2.971-6.151,6.439,0,12.463,23.58,36.043,36.043,36.043,3.468,0,5.659-4.3,6.439-6.152a.463.463,0,0,0-.108-.507l-5.779-5.779a.457.457,0,0,0-.622-.038,5.96,5.96,0,0,1-3.534,1.77c-4.672.29-10.427-3.675-14.244-7.492s-7.789-9.563-7.491-14.244a5.967,5.967,0,0,1,1.772-3.533.455.455,0,0,0-.038-.62l-5.78-5.78A.479.479,0,0,0,10.893,13.935Z" transform="translate(-2 -11.363)" fill="#fff"/>
        </g>
        <g id="Group_36618" data-name="Group 36618" transform="translate(23.441)">
          <path id="Path_19824" data-name="Path 19824" d="M29.339,34.273a5.667,5.667,0,0,1-1.213-.109A1.286,1.286,0,0,1,27.4,32.13a7.563,7.563,0,0,0,1.178-3.861c-5.241-2.516-8.341-6.644-8.341-11.174,0-7.46,8.584-13.531,19.134-13.531S58.5,9.635,58.5,17.1,49.918,30.625,39.368,30.625c-.535,0-1.1-.02-1.711-.062C34.168,33.765,31,34.273,29.339,34.273ZM39.368,6.136C30.235,6.136,22.8,11.053,22.8,17.1c0,3.7,2.847,7.14,7.615,9.189a1.287,1.287,0,0,1,.777,1.229,14.386,14.386,0,0,1-.676,4.09,11.248,11.248,0,0,0,5.77-3.286,1.232,1.232,0,0,1,1.005-.36c.767.064,1.445.1,2.073.1,9.133,0,16.563-4.915,16.563-10.958S48.5,6.136,39.368,6.136Z" transform="translate(-20.233 -3.565)" fill="#fff"/>
        </g>
      </g>
    </g>
  </g>
</svg>
