<svg xmlns="http://www.w3.org/2000/svg" width="64.152" height="56.989" viewBox="0 0 64.152 56.989">
  <g id="Group_36747" data-name="Group 36747" transform="translate(-39.151 -23.513)">
    <g id="Group_36745" data-name="Group 36745">
      <g id="noun_Welcome_Arms_538753" data-name="noun_Welcome Arms_538753" transform="translate(33.417 12.711)">
        <path id="Path_19863" data-name="Path 19863" d="M45.277,73.9v-5.72a45.729,45.729,0,0,0,9.346,2.66,5.435,5.435,0,0,0,3.44-.284c1.517-.921,2.031-3.32,1.944-4.93a7.2,7.2,0,0,0-1.374-4.022c-.581-.7-1.458-.637-2.275-.761a17.2,17.2,0,0,1-2.582-.6,23.517,23.517,0,0,1-10.912-7.982,10.365,10.365,0,0,0-3.992-3.174A8.277,8.277,0,1,0,27.589,49a9.72,9.72,0,0,0-4.03,3.036c-.258.374-.543.731-.833,1.08a24.343,24.343,0,0,1-5.05,4.592,20.255,20.255,0,0,1-4.062,2.144,17.827,17.827,0,0,1-2.281.711c-.889.212-1.8.251-2.687.431-1.4.282-1.989,2.274-2.241,3.478a6.718,6.718,0,0,0,.883,5.077,2.938,2.938,0,0,0,2.767,1.407,16.5,16.5,0,0,0,3.927-.575,64.3,64.3,0,0,0,7-2.2V73.9H24.7V59.1a7.447,7.447,0,0,1,7.438-7.439h1.98A7.447,7.447,0,0,1,41.558,59.1V73.9h3.719Zm-12-35.6a4.7,4.7,0,1,1-4.7,4.7A4.748,4.748,0,0,1,33.28,38.3ZM10.2,67.415h-.012a3.523,3.523,0,0,1-.025-2.986A22.838,22.838,0,0,0,21.12,59.637V64.3C16.775,65.931,11.833,67.415,10.2,67.415Zm45.882,0a16.4,16.4,0,0,1-4.351-.914c-2.223-.64-4.418-1.386-6.585-2.2V59.638A22.856,22.856,0,0,0,56.1,64.429a3.521,3.521,0,0,1-.024,2.986S56.67,66.33,56.077,67.415Z" transform="translate(0 -6.611)" fill="#fff" stroke="#060515" stroke-width="1"/>
        <path id="Path_19864" data-name="Path 19864" d="M72.081,11.3a12.383,12.383,0,0,0-9.2,20.673l-2.938,8.289A1.8,1.8,0,0,0,62.8,42.222l7.346-6.3A12.506,12.506,0,0,0,84.37,25.291,12.384,12.384,0,0,0,72.081,11.3Zm0,21.2c-1.158,0-2.617-.715-3.609.137l-2.91,2.494,1.07-3.02c.336-.944-.182-1.6-.809-2.236A8.8,8.8,0,1,1,72.081,32.5Z" transform="translate(-15.095 0)" fill="#fff" stroke="#060515" stroke-width="1"/>
        <path id="Path_19865" data-name="Path 19865" d="M76.941,22.643A2.423,2.423,0,0,0,74.9,24.035c-1.091-2.34-4.494-1.534-5.188.635C68.675,27.9,72.6,30.732,74.9,32.112c.009-.017-.009-.017,0,0C83.235,27.1,80.037,22.267,76.941,22.643Z" transform="translate(-17.869 -3.195)" fill="#fff" stroke="#060515" stroke-width="1"/>
      </g>
    </g>
  </g>
</svg>
