<svg xmlns="http://www.w3.org/2000/svg" width="49.587" height="49.587" viewBox="0 0 49.587 49.587">
  <g id="Group_36744" data-name="Group 36744" transform="translate(-32.207 -32.707)">
    <g id="Group_36630" data-name="Group 36630" transform="translate(29.707 30.207)">
      <path id="Path_19861" data-name="Path 19861" d="M27.293,2.5A24.793,24.793,0,1,0,52.087,27.293,24.816,24.816,0,0,0,27.293,2.5Zm0,46.194a21.4,21.4,0,1,1,21.4-21.4A21.43,21.43,0,0,1,27.293,48.694Z" fill="#fff"/>
      <path id="Path_19862" data-name="Path 19862" d="M48.046,35.834l-10.7,10.7-5.011-5.011a1.7,1.7,0,1,0-2.4,2.4l6.211,6.211a1.7,1.7,0,0,0,1.2.522,1.512,1.512,0,0,0,1.2-.522l11.9-11.9a1.7,1.7,0,0,0-2.4-2.4Z" transform="translate(-12.871 -15.691)" fill="#fff"/>
    </g>
  </g>
</svg>
