<svg xmlns="http://www.w3.org/2000/svg" width="53.748" height="55.263" viewBox="0 0 53.748 55.263">
  <g id="Group_36743" data-name="Group 36743" transform="translate(-36.126 -27.396)">
    <g id="noun_account_expired_2899191" data-name="noun_account expired_2899191" transform="translate(28.626 16.841)">
      <path id="Path_19841" data-name="Path 19841" d="M36.851,3A16.851,16.851,0,1,0,53.7,19.851,16.851,16.851,0,0,0,36.851,3Zm0,31.109A14.258,14.258,0,1,1,51.109,19.851,14.258,14.258,0,0,1,36.851,34.109Z" transform="translate(-0.004 7.555)" fill="#fff"/>
      <path id="Path_19842" data-name="Path 19842" d="M55.429,58H38.121a1.648,1.648,0,1,0,0,3.3H55.429a6.594,6.594,0,0,1,6.594,6.594v.824a1.648,1.648,0,0,1-1.648,1.648H35.648a1.648,1.648,0,0,0,0,3.3H60.374a4.945,4.945,0,0,0,4.945-4.945V67.89A9.89,9.89,0,0,0,55.429,58Z" transform="translate(-4.571 -8.341)" fill="#fff" stroke="#060515" stroke-width="1"/>
      <path id="Path_19843" data-name="Path 19843" d="M18.714,51A10.714,10.714,0,1,0,29.429,61.714,10.714,10.714,0,0,0,18.714,51Zm0,18.132a7.418,7.418,0,1,1,7.418-7.418,7.418,7.418,0,0,1-7.418,7.418Z" transform="translate(0 -7.111)" fill="#fff" stroke="#060515" stroke-width="1"/>
      <path id="Path_19844" data-name="Path 19844" d="M22.3,62.085V58.648a1.648,1.648,0,0,0-3.3,0v4.121a1.648,1.648,0,0,0,.486,1.162L21.959,66.4a1.648,1.648,0,1,0,2.324-2.324Z" transform="translate(-1.934 -8.166)" fill="#fff" stroke="#060515" stroke-width="1"/>
    </g>
  </g>
</svg>
